<svg xmlns="http://www.w3.org/2000/svg" width="284.208" height="64" viewBox="0 0 284.208 64">
  <g id="logo2" transform="translate(-2.05 -2.4)">
    <path id="Path_15" data-name="Path 15" d="M31.42,11.715V2.4H2.05v64H31.42V57.085a22.685,22.685,0,0,1,0-45.37Z" transform="translate(0 0)" fill="#707070"/>
    <path id="Path_16" data-name="Path 16" d="M15.45,6.65V52.02a22.685,22.685,0,1,0,0-45.37Z" transform="translate(15.97 5.065)" fill="#707070"/>
    <path id="Path_17" data-name="Path 17" d="M33.32,9.25H39.9V40.921H33.32Z" transform="translate(37.267 8.164)" fill="#707070"/>
    <path id="Path_18" data-name="Path 18" d="M38,25.007A11.507,11.507,0,1,1,49.442,36.514,11.353,11.353,0,0,1,38,25.007Zm16.482,0a5,5,0,1,0-5,5.129,4.866,4.866,0,0,0,4.953-5.129Z" transform="translate(42.844 13.229)" fill="#707070"/>
    <path id="Path_19" data-name="Path 19" d="M73.157,14.067V34.692c0,7.277-5.7,10.367-11.463,10.367A10.959,10.959,0,0,1,51.415,39.8l5.545-3.2a4.976,4.976,0,0,0,4.953,2.74,4.383,4.383,0,0,0,4.91-4.647V32.7A7.737,7.737,0,0,1,60.489,35.5a10.959,10.959,0,0,1,0-21.918,7.737,7.737,0,0,1,6.334,2.805V14.2ZM66.823,24.478a5.26,5.26,0,1,0-5.26,5.041,4.91,4.91,0,0,0,5.26-5.041Z" transform="translate(56.586 13.319)" fill="#707070"/>
    <path id="Path_20" data-name="Path 20" d="M62,25.007A11.507,11.507,0,1,1,73.485,36.514,11.375,11.375,0,0,1,62,25.007Zm16.482,0a5,5,0,1,0-4.975,5.129,4.866,4.866,0,0,0,4.953-5.129Z" transform="translate(71.447 13.229)" fill="#707070"/>
    <path id="Path_21" data-name="Path 21" d="M73.87,13.271a3.9,3.9,0,1,1,3.9,3.9,3.945,3.945,0,0,1-3.9-3.9Zm.636,5.808h6.575v21.7H74.506Z" transform="translate(85.594 8.307)" fill="#707070"/>
    <path id="Path_22" data-name="Path 22" d="M102.835,24.982A10.959,10.959,0,0,1,92.381,36.489a8.153,8.153,0,0,1-6.575-2.652V44.555H79.23V14.133h6.575v2.038a8.132,8.132,0,0,1,6.575-2.63,10.959,10.959,0,0,1,10.455,11.441Zm-6.575,0a5.173,5.173,0,1,0-5.151,5.3,4.953,4.953,0,0,0,5.151-5.3Z" transform="translate(91.982 13.254)" fill="#707070"/>
    <path id="Path_23" data-name="Path 23" d="M109.117,29.316c0,5-4.384,7.123-9.03,7.123a9.513,9.513,0,0,1-9.337-5.173l5.655-3.2a3.551,3.551,0,0,0,3.66,2.564c1.556,0,2.345-.482,2.345-1.359,0-2.389-10.674-1.118-10.674-8.636,0-4.734,3.989-7.1,8.5-7.1a9.513,9.513,0,0,1,8.592,4.625l-5.655,2.981a3.2,3.2,0,0,0-2.915-1.907c-1.14,0-1.819.438-1.819,1.205C98.443,22.938,109.117,21.294,109.117,29.316Z" transform="translate(105.711 13.259)" fill="#707070"/>
    <path id="Path_24" data-name="Path 24" d="M121.358,13.8V35.5h-6.575V33.46a7.471,7.471,0,0,1-6.181,2.7c-4.384,0-8.132-3.134-8.132-8.986V13.8h6.575V26.184a3.567,3.567,0,0,0,.18,1.532,3.6,3.6,0,0,0,3.612,2.413c2.367,0,4.033-1.4,4.033-4.384V13.8Z" transform="translate(117.295 13.586)" fill="#707070"/>
    <path id="Path_25" data-name="Path 25" d="M144.805,22.507V35.833H138.23V23.076c0-2.192-1.03-3.551-3.112-3.551s-3.4,1.512-3.4,4.077v12.23h-6.575V23.076c0-2.192-1.03-3.551-3.112-3.551s-3.4,1.512-3.4,4.077v12.23H112.06v-21.7h6.575v1.995a6.709,6.709,0,0,1,5.83-2.586,6.422,6.422,0,0,1,5.677,2.849,7.149,7.149,0,0,1,6.29-2.849C141.561,13.542,144.805,17.093,144.805,22.507Z" transform="translate(131.108 13.252)" fill="#707070"/>
    <path id="Path_26" data-name="Path 26" d="M132.142,18.984a4.822,4.822,0,1,0-4.822-4.822A4.822,4.822,0,0,0,132.142,18.984Z" transform="translate(149.294 8.271)" fill="#707070"/>
  </g>
</svg>
