<svg xmlns="http://www.w3.org/2000/svg" width="280.287" height="64" viewBox="0 0 280.287 64">
  <g id="logo3" transform="translate(-2.471 -2.429)">
    <path id="Path_40" data-name="Path 40" d="M36.87,11.185h7.079V39.809H36.87ZM46.757,29c0-7.079,4.342-11.3,11.044-11.3S68.845,21.922,68.845,29,64.6,40.328,57.8,40.328,46.757,36.2,46.757,29Zm14.985,0c0-3.894-1.534-6.183-3.941-6.183S53.884,25.178,53.884,29s1.487,6.135,3.917,6.135,3.941-2.171,3.941-6.112Zm9.769,12.2h6.8a3.658,3.658,0,0,0,3.823,2.124c2.69,0,4.106-1.463,4.106-3.587V35.774H86.1a6.7,6.7,0,0,1-6.442,3.87c-5.168,0-8.59-3.941-8.59-10.713s3.257-11.044,8.684-11.044A6.772,6.772,0,0,1,86.26,22.04h0V18.1H93.34V39.573c0,5.168-4.554,8.377-11.28,8.377-6.253,0-10.147-2.808-10.548-6.725ZM86.26,28.977c0-3.445-1.581-5.616-4.082-5.616s-4.035,2.147-4.035,5.616,1.51,5.427,4.035,5.427S86.26,32.493,86.26,29Zm9.746,0c0-7.079,4.342-11.3,11.044-11.3s11.067,4.224,11.067,11.3S113.87,40.3,107.05,40.3,96.006,36.2,96.006,29Zm14.985,0c0-3.894-1.534-6.183-3.941-6.183s-3.8,2.383-3.8,6.23,1.487,6.135,3.894,6.135,3.846-2.195,3.846-6.135Zm9.817-16.023a3.61,3.61,0,1,1,3.681,3.516A3.446,3.446,0,0,1,120.807,13Zm0,5.192h7.079V39.809h-7.079Zm32.777,10.831c0,7.079-3.139,11.115-8.519,11.115a6.749,6.749,0,0,1-6.607-4.012h-.142V46.746h-7.079V18.1h7.079v3.87h.142a6.773,6.773,0,0,1,6.56-4.177c5.427.094,8.66,4.153,8.66,11.233Zm-7.079,0c0-3.445-1.581-5.64-4.059-5.64s-4.059,2.218-4.082,5.64,1.6,5.616,4.082,5.616,4.059-2.147,4.059-5.569ZM165.738,17.65c5.876,0,9.439,2.785,9.6,7.245H168.9c0-1.534-1.274-2.5-3.233-2.5s-2.832.755-2.832,1.864.779,1.463,2.36,1.793l4.531.92c4.318.92,6.159,2.667,6.159,5.947,0,4.484-4.082,7.363-10.1,7.363s-9.958-2.879-10.265-7.292h6.82c.212,1.6,1.487,2.549,3.563,2.549s3.021-.684,3.021-1.817-.661-1.369-2.36-1.723l-4.082-.873c-4.224-.873-6.442-3.115-6.442-6.419.047-4.248,3.846-7.009,9.7-7.009Zm33.768,22.111h-6.82V35.726h-.142a6.158,6.158,0,0,1-6.277,4.507,7.528,7.528,0,0,1-7.929-8.141V18.1h7.079V30.464c0,2.572,1.321,3.941,3.516,3.941a3.611,3.611,0,0,0,3.587-4.082V18.1H199.6ZM202.928,18.1h6.843v4.177h.142a6.277,6.277,0,0,1,6.159-4.578,5.639,5.639,0,0,1,6.017,4.72h.142a6.657,6.657,0,0,1,6.655-4.72,6.866,6.866,0,0,1,7.079,7.363V39.809h-7.079V26.948c0-2.36-1.062-3.445-3.044-3.445A3.089,3.089,0,0,0,222.75,27V39.809h-6.725V26.854c0-2.171-1.062-3.351-3-3.351a3.16,3.16,0,0,0-3.138,3.54V39.809H202.81Z" transform="translate(46.775 9.276)" fill="#707070"/>
    <path id="Path_41" data-name="Path 41" d="M63.846,21.758a31.263,31.263,0,0,0-4.72-7.6A31.928,31.928,0,1,0,15.046,59.751,30.889,30.889,0,0,0,22.6,64.069a31.6,31.6,0,0,0,11.964,2.36A32,32,0,0,0,66.489,34.454a31.6,31.6,0,0,0-2.643-12.7ZM34.538,8.945A25.273,25.273,0,0,1,45.2,11.3h0a10.358,10.358,0,0,1-2.549.732A13.522,13.522,0,0,0,31.211,23.481a7.079,7.079,0,0,1-6.4,6.253A13.522,13.522,0,0,0,13.371,41.179a6.867,6.867,0,0,1-1.864,4.106h0A25.486,25.486,0,0,1,34.562,8.9ZM15.023,50.972c.283-.26.566-.5.85-.779a12.931,12.931,0,0,0,3.823-7.622,6.89,6.89,0,0,1,2.053-4.295,6.679,6.679,0,0,1,4.271-2.029A13.522,13.522,0,0,0,37.464,24.8,6.891,6.891,0,0,1,39.517,20.3a6.773,6.773,0,0,1,4.318-1.959,12.932,12.932,0,0,0,7.079-3.374,24.8,24.8,0,0,1,5.569,6.56,2.035,2.035,0,0,1-.307.33,6.772,6.772,0,0,1-4.271,2.077A13.474,13.474,0,0,0,40.461,35.374,7.079,7.079,0,0,1,34.113,41.7,13.592,13.592,0,0,0,22.6,53.143a7.411,7.411,0,0,1-1.156,3.233,25.7,25.7,0,0,1-6.419-5.4Zm19.515,9.109a25.583,25.583,0,0,1-7.079-.991,13.637,13.637,0,0,0,1.51-4.72,7.079,7.079,0,0,1,6.324-6.324A13.522,13.522,0,0,0,46.762,36.6a7.08,7.08,0,0,1,6.324-6.324,13.474,13.474,0,0,0,6.041-2.36A25.533,25.533,0,0,1,34.538,59.963Z" transform="translate(0 0)" fill="#707070"/>
  </g>
</svg>
