<svg xmlns="http://www.w3.org/2000/svg" width="325.556" height="64" viewBox="0 0 325.556 64">
  <g id="logo4" transform="translate(-2.07 -1.668)">
    <path id="Path_27" data-name="Path 27" d="M36.082,14.883a8.774,8.774,0,0,0-2.51,7.03l-.043-.043A10.426,10.426,0,0,1,22.262,33.136l.043.043a8.827,8.827,0,1,0,7.971,7.963l.046.043A10.426,10.426,0,0,1,41.588,29.92l-.046-.043a8.811,8.811,0,1,0-5.453-14.993Z" transform="translate(14.826 14.872)" fill="#707070"/>
    <path id="Path_28" data-name="Path 28" d="M31.917,41.073l-.046-.043a8.715,8.715,0,0,0,9.545-9.538l.046.043A10.426,10.426,0,0,1,52.727,20.269l-.046-.043a8.827,8.827,0,1,0-7.963-7.963l-.043-.046A10.423,10.423,0,0,1,33.409,23.483l.043.046a8.714,8.714,0,0,0-9.545,9.538l-.043-.043A10.428,10.428,0,0,1,12.6,44.289l.043.043A8.827,8.827,0,1,0,20.605,52.3l.046.043A10.426,10.426,0,0,1,31.917,41.073Z" transform="translate(1.287 1.319)" fill="#707070"/>
    <path id="Path_29" data-name="Path 29" d="M17.118,37.575a8.765,8.765,0,0,0,2.508-7.03l.046.043A10.426,10.426,0,0,1,30.942,19.323l-.046-.043a8.825,8.825,0,1,0-7.963-7.963l-.043-.043A10.426,10.426,0,0,1,11.624,22.539l.043.043a8.811,8.811,0,1,0,5.455,14.993Z" transform="translate(0 0)" fill="#707070"/>
    <path id="Path_30" data-name="Path 30" d="M39.317,6.655h7.128V41.343H39.317Z" transform="translate(52.147 6.982)" fill="#707070"/>
    <path id="Path_31" data-name="Path 31" d="M43.969,23.534A12.593,12.593,0,1,1,56.562,36.077,12.452,12.452,0,0,1,43.969,23.534Zm18.058,0a5.467,5.467,0,1,0-5.465,5.619,5.331,5.331,0,0,0,5.465-5.619Z" transform="translate(58.66 12.913)" fill="#707070"/>
    <path id="Path_32" data-name="Path 32" d="M81.217,11.605v22.56c0,7.983-6.226,11.357-12.545,11.357a12.148,12.148,0,0,1-11.261-5.76l6.082-3.516a5.429,5.429,0,0,0,5.417,2.993,4.735,4.735,0,0,0,5.369-5.083V31.984a8.439,8.439,0,0,1-6.939,3.089,12.075,12.075,0,0,1,0-24.137,8.439,8.439,0,0,1,6.939,3.089V11.6Zm-6.936,11.4a5.76,5.76,0,1,0-5.748,5.52,5.376,5.376,0,0,0,5.748-5.52Z" transform="translate(75.008 12.962)" fill="#707070"/>
    <path id="Path_33" data-name="Path 33" d="M67.982,23.534A12.593,12.593,0,1,1,80.575,36.077,12.452,12.452,0,0,1,67.982,23.534Zm18.058,0a5.467,5.467,0,1,0-5.465,5.619,5.331,5.331,0,0,0,5.465-5.619Z" transform="translate(92.279 12.913)" fill="#707070"/>
    <path id="Path_34" data-name="Path 34" d="M79.861,11.051a4.277,4.277,0,1,1,4.277,4.277,4.32,4.32,0,0,1-4.277-4.277Zm.72,6.367h7.131v23.76h-7.14Z" transform="translate(108.911 7.149)" fill="#707070"/>
    <path id="Path_35" data-name="Path 35" d="M110.868,23.485A11.93,11.93,0,0,1,99.511,36.027a8.916,8.916,0,0,1-7.078-2.9V44.867H85.3V11.6h7.128v2.232a8.922,8.922,0,0,1,7.078-2.9,11.928,11.928,0,0,1,11.357,12.545Zm-7.128,0a5.655,5.655,0,1,0-5.652,5.8,5.424,5.424,0,0,0,5.652-5.8Z" transform="translate(116.533 12.962)" fill="#707070"/>
    <path id="Path_36" data-name="Path 36" d="M116.845,28.23c0,5.465-4.75,7.793-9.881,7.793a10.4,10.4,0,0,1-10.217-5.655l6.175-3.516a3.905,3.905,0,0,0,4.032,2.8c1.709,0,2.566-.523,2.566-1.471,0-2.616-11.691-1.236-11.691-9.456,0-5.182,4.373-7.793,9.315-7.793a10.392,10.392,0,0,1,9.264,5.083L110.326,19.3a3.449,3.449,0,0,0-3.182-2.09c-1.236,0-2,.48-2,1.33C105.157,21.246,116.845,19.438,116.845,28.23Z" transform="translate(132.552 12.967)" fill="#707070"/>
    <path id="Path_37" data-name="Path 37" d="M129.27,11.209v23.76h-7.128V32.735a8.119,8.119,0,0,1-6.792,2.9c-4.8,0-8.88-3.42-8.88-9.84V11.209H113.6V24.75a3.918,3.918,0,0,0,4.133,4.32c2.614,0,4.418-1.519,4.418-4.894V11.216Z" transform="translate(146.165 13.358)" fill="#707070"/>
    <path id="Path_38" data-name="Path 38" d="M153.789,20.783V35.37h-7.128V21.4c0-2.376-1.14-3.9-3.42-3.9-2.376,0-3.708,1.663-3.708,4.466v13.4h-7.126V21.4c0-2.376-1.14-3.9-3.422-3.9-2.376,0-3.706,1.663-3.706,4.466v13.4h-7.128V11.61h7.128v2.184a7.291,7.291,0,0,1,6.367-2.849,7.066,7.066,0,0,1,6.223,3.134,7.827,7.827,0,0,1,6.891-3.134C150.216,10.947,153.789,14.842,153.789,20.783Z" transform="translate(162.519 12.955)" fill="#707070"/>
    <path id="Path_39" data-name="Path 39" d="M138.6,17.319a5.29,5.29,0,1,0-5.29-5.29A5.29,5.29,0,0,0,138.6,17.319Z" transform="translate(183.739 7.101)" fill="#707070"/>
  </g>
</svg>
