<svg xmlns="http://www.w3.org/2000/svg" width="153.45" height="32" viewBox="0 0 153.45 32">
  <g id="logo" transform="translate(-78.047 -111.049)">
    <path id="Path_45" data-name="Path 45" d="M103.3,131.606v4.815h-1.072c-5.907,0-11.814.016-17.719-.018-.806,0-1.029.237-.991,1.016.063,1.28,0,2.566.022,3.849a2.6,2.6,0,0,0,2.522,2.687c.354.031.709.029,1.065.029q10.334,0,20.67,0h1.067v4.8c-.3.016-.566.038-.83.038-7.3,0-14.6.02-21.9-.013a8.149,8.149,0,0,1-6.625-3.188,6.409,6.409,0,0,1-1.428-4.09c0-3.985.081-7.975-.027-11.957a7.644,7.644,0,0,1,6.46-7.6,11.261,11.261,0,0,1,2.034-.172q10.827-.02,21.657-.009h.635v4.84h-1.043c-6.972,0-13.947-.009-20.919.016a5.508,5.508,0,0,0-1.974.383,2.039,2.039,0,0,0-1.32,1.83c-.054.888-.011,1.781-.011,2.748C90.184,131.606,96.709,131.606,103.3,131.606Z" transform="translate(0 -8.335)" fill="#fff"/>
    <path id="Path_46" data-name="Path 46" d="M527.71,140.531a15.571,15.571,0,0,1,4.6-10.966,2.4,2.4,0,1,1,3.475,3.3,11.2,11.2,0,0,0,5.021,18.643,11.109,11.109,0,0,0,13.6-7.339,10.7,10.7,0,0,0-2.417-11,2.708,2.708,0,0,1-.964-2.387,2.357,2.357,0,0,1,1.725-1.976,2.3,2.3,0,0,1,2.446.712,16.008,16.008,0,0,1-.219,22.639,15.174,15.174,0,0,1-12.04,4.562,15.831,15.831,0,0,1-15.016-13.83C527.835,142.1,527.782,141.316,527.71,140.531Z" transform="translate(-349.05 -13.693)" fill="#009648"/>
    <path id="Path_47" data-name="Path 47" d="M351.973,161.851H337.951c.107,1.215.136,2.352.331,3.459a1.867,1.867,0,0,0,1.781,1.573c1.6.105,3.206.1,4.806.043a2.341,2.341,0,0,0,2.425-2.2,2.754,2.754,0,0,1,.163-.443l4.515.488a5.751,5.751,0,0,1-4.706,5.679,21.682,21.682,0,0,1-8.471.128c-3.361-.591-5.166-2.443-5.4-5.829a59.314,59.314,0,0,1,.078-8.827c.23-2.9,1.969-4.7,4.873-5.3a20.386,20.386,0,0,1,9.019.083,5.647,5.647,0,0,1,4.576,5.128C352.11,157.78,351.973,159.754,351.973,161.851Zm-14.043-3.69h9.5c-.094-.77-.139-1.47-.271-2.155a2.139,2.139,0,0,0-2.092-1.857,44.11,44.11,0,0,0-4.8,0,1.95,1.95,0,0,0-1.9,1.43C338.141,156.4,338.074,157.264,337.931,158.161Z" transform="translate(-198.111 -30.357)" fill="#fff"/>
    <path id="Path_48" data-name="Path 48" d="M235.15,150.69c.043-.029.065-.06.085-.06,4.175.085,8.366-.031,12.519.322,3.385.289,5.352,2.7,5.424,6.111.1,4.531.054,9.064.067,13.6a4.4,4.4,0,0,1-.063.508h-4.634c0-.345,0-.66,0-.976-.034-4.258-.049-8.516-.112-12.774-.027-1.824-.723-2.656-2.526-2.772-1.982-.128-3.981-.029-6.093-.029v16.538H235.15Q235.15,160.923,235.15,150.69Z" transform="translate(-121.951 -30.724)" fill="#fff"/>
    <path id="Path_49" data-name="Path 49" d="M683.44,160.812c0-3.112.016-6.225-.011-9.335-.007-.647.132-.917.853-.9,3.524.085,7.048.087,10.572.183a6.393,6.393,0,0,1,6.279,4.565,7.868,7.868,0,0,1,.255,1.853c.027,4.368.011,8.735.036,13.1,0,.618-.139.891-.821.85a25.561,25.561,0,0,0-2.869,0c-.647.034-.846-.172-.841-.828.029-3.629.025-7.261.007-10.892a23.961,23.961,0,0,0-.168-2.687c-.17-1.416-1.157-2.206-3-2.291-1.718-.078-3.444-.011-5.166-.038-.7-.011-.615.459-.615.888q0,6.387,0,12.776c0,.765-.036,1.53.011,2.291.038.631-.208.806-.808.776-.873-.043-1.75-.011-2.625-.011-1.085,0-1.085,0-1.085-1.049Q683.439,165.439,683.44,160.812Z" transform="translate(-469.926 -30.683)" fill="#009648"/>
    <path id="Path_50" data-name="Path 50" d="M451.974,156.7c-1.5.161-2.9.327-4.3.439-.143.011-.407-.286-.454-.479a2.433,2.433,0,0,0-2.428-2.132c-1.544-.119-3.094-.152-4.735-.228v16.719H435.38V150.538a1.316,1.316,0,0,1,.307-.078c3.278.047,6.56.013,9.834.172,3.6.175,5.625,1.935,6.357,5.278C451.924,156.119,451.931,156.336,451.974,156.7Z" transform="translate(-277.379 -30.592)" fill="#fff"/>
    <path id="Path_51" data-name="Path 51" d="M588.872,118.944c0-1.8-.007-3.6,0-5.395a2.313,2.313,0,0,1,2.323-2.5,2.4,2.4,0,0,1,2.479,2.47q.027,5.313,0,10.628a2.428,2.428,0,0,1-2,2.522,2.329,2.329,0,0,1-2.687-1.613,2.981,2.981,0,0,1-.114-.882C588.867,122.432,588.872,120.687,588.872,118.944Z" transform="translate(-396.524)" fill="#009648"/>
  </g>
</svg>
