<svg xmlns="http://www.w3.org/2000/svg" width="274.538" height="64" viewBox="0 0 274.538 64">
  <g id="logo1" transform="translate(-2.52 -2.229)">
    <path id="Path_13" data-name="Path 13" d="M38.51,12.3h6.955V40.463H38.51Zm9.728,17.57c0-6.976,4.333-11.158,10.833-11.158S69.9,22.892,69.9,29.869s-4.181,11.2-10.833,11.2S48.238,37,48.238,29.869Zm14.776,0c0-3.835-1.495-6.088-3.878-6.088s-3.856,2.167-3.856,6.088,1.473,6.066,3.856,6.066,3.921-2.145,3.921-6.045Zm9.663,12.046h6.716a3.6,3.6,0,0,0,3.77,2.167c2.665,0,4.051-1.43,4.051-3.553v-3.9h.022a6.651,6.651,0,0,1-6.5,3.791c-5.091,0-8.471-3.878-8.471-10.551s3.228-10.833,8.666-10.833a6.651,6.651,0,0,1,6.5,4.095h-.195V19.209h6.89v21.1c0,5.091-4.506,8.276-11.136,8.276-6.023-.022-9.879-2.773-10.269-6.651ZM87.235,29.869c0-3.4-1.56-5.546-4.03-5.546s-3.986,2.167-3.986,5.546,1.495,5.373,3.986,5.373S87.235,33.4,87.235,29.869Zm9.641,0c0-6.976,4.333-11.158,10.833-11.158s10.833,4.181,10.833,11.158-4.2,11.2-10.833,11.2S96.919,37,96.919,29.869Zm14.776,0c0-3.835-1.517-6.088-3.878-6.088s-3.856,2.167-3.856,6.088,1.473,6.066,3.856,6.066,3.921-2.145,3.921-6.045Zm9.706-15.794a3.553,3.553,0,1,1,3.553,3.4,3.423,3.423,0,0,1-3.51-3.38Zm0,5.113H128.4V40.55h-6.933Zm32.368,10.681c0,6.955-3.12,10.984-8.428,10.984a6.651,6.651,0,0,1-6.5-3.965h-.13V47.417h-6.955V19.253h6.911v3.813h.13a6.694,6.694,0,0,1,6.5-4.116c5.46-.043,8.6,3.965,8.6,10.941Zm-7.085,0c0-3.38-1.582-5.568-4.03-5.568s-3.986,2.167-4.008,5.568,1.56,5.546,4.008,5.546,4.16-2.015,4.16-5.525ZM165.6,18.689c5.828,0,9.446,2.751,9.489,7.171h-6.348c0-1.538-1.278-2.491-3.185-2.491s-2.816.737-2.816,1.842.8,1.452,2.4,1.777l4.463.91c4.333.91,6.066,2.643,6.066,5.871,0,4.333-4.008,7.279-9.966,7.279s-9.836-2.86-10.118-7.215h6.738c.195,1.582,1.452,2.513,3.488,2.513s2.99-.65,2.99-1.8-.65-1.343-2.318-1.69l-4.03-.845c-4.181-.888-6.37-3.076-6.37-6.348.13-4.246,3.77-6.955,9.641-6.955Zm33.364,21.839h-6.738V36.52h-.13a6.11,6.11,0,0,1-6.218,4.441,7.432,7.432,0,0,1-7.648-8.038V19.209h6.955V31.429c0,2.513,1.322,3.878,3.488,3.878a3.559,3.559,0,0,0,3.388-2.569,3.6,3.6,0,0,0,.1-1.5V19.209h6.933Zm3.358-21.34h6.76V23.3h.152A6.2,6.2,0,0,1,215.32,18.8a5.547,5.547,0,0,1,5.936,4.528h.3a6.5,6.5,0,0,1,6.5-4.528,6.762,6.762,0,0,1,7,7.258V40.55h-7V27.832c0-2.167-1.018-3.38-2.99-3.38a3.031,3.031,0,0,0-3.055,3.445V40.55h-6.63V27.767c0-2.167-1.062-3.315-2.968-3.315a3.091,3.091,0,0,0-2.983,2.182,3.063,3.063,0,0,0-.115,1.306V40.55h-6.955Z" transform="translate(41.983 9.496)" fill="#707070"/>
    <path id="Path_14" data-name="Path 14" d="M66.736,23.636A21.405,21.405,0,0,0,29.558,9.163H2.52V66.229H59.608V39.56a21.383,21.383,0,0,0,7.128-15.924Zm-10.984,0a10.443,10.443,0,1,1-3.066-7.37,10.443,10.443,0,0,1,3.066,7.37ZM48.623,55.245H13.5v-35.1h10.7a20.7,20.7,0,0,0-.325,3.488A21.449,21.449,0,0,0,45.309,45.063a20.951,20.951,0,0,0,3.315-.282Z" fill="#707070"/>
  </g>
</svg>
